<?xml version="1.0" standalone="no"?>
<!DOCTYPE svg PUBLIC "-//W3C//DTD SVG 20010904//EN"
 "http://www.w3.org/TR/2001/REC-SVG-20010904/DTD/svg10.dtd">
<svg version="1.0" xmlns="http://www.w3.org/2000/svg"
 width="600.000000pt" height="600.000000pt" viewBox="0 0 600.000000 600.000000"
 preserveAspectRatio="xMidYMid meet">

<g transform="translate(0.000000,600.000000) scale(0.100000,-0.100000)"
fill="#000000" stroke="none">
<path d="M3195 5778 c-80 -29 -190 -136 -243 -237 -33 -62 -95 -284 -114 -403
-6 -43 -15 -78 -18 -78 -35 0 -205 37 -285 61 -131 41 -245 98 -329 165 -56
46 -67 51 -61 32 16 -59 73 -153 118 -199 l51 -50 -70 8 c-100 12 -269 8 -339
-7 -205 -43 -466 -138 -680 -248 -160 -82 -394 -237 -497 -329 -411 -368 -621
-856 -669 -1558 -41 -607 109 -1128 460 -1600 100 -134 358 -390 501 -497 532
-399 1147 -604 1870 -625 599 -16 1137 97 1631 344 629 314 1088 814 1296
1413 89 254 123 469 123 773 0 667 -144 1149 -458 1535 -208 257 -646 565
-938 661 -130 42 -234 55 -378 47 l-121 -7 -137 43 c-76 24 -138 45 -137 48 0
3 34 46 75 95 70 82 124 171 124 203 0 7 -27 -10 -60 -37 -154 -128 -344 -204
-644 -257 -45 -8 -97 -14 -118 -14 l-36 0 -7 103 c-3 60 -2 116 4 135 28 94
106 177 223 239 38 20 80 49 94 66 l25 30 -58 59 c-59 61 -118 99 -150 97 -10
0 -31 -5 -48 -11z"/>
</g>
</svg>
